<svg xmlns="http://www.w3.org/2000/svg" xmlns:xlink="http://www.w3.org/1999/xlink" viewBox="0 0 512 512"><style>#t:target~use{opacity:.1}#u:target~use{opacity:.3}text,textPath{dominant-baseline:central;text-anchor:middle;fill:#ffd800}</style><defs><filter id="glow" width="180%" height="180%" x="-40%" y="-40%"><feGaussianBlur result="glow" stdDeviation="10 10"/><feMerge><feMergeNode in="glow"/><feMergeNode in="glow"/><feMergeNode in="glow"/><feMergeNode in="glow"/></feMerge></filter><filter id="shadow" width="140%" height="140%" x="-20%" y="-20%"><feGaussianBlur result="shadow" stdDeviation="2 2"/><feOffset dx="4" dy="8"/></filter><filter id="extrusion"><feConvolveMatrix divisor="1" in="SourceAlpha" kernelMatrix="1 0 0 0 0 0 0 0 0 1 0 0 0 0 0 0 0 0 1 0 0 0 0 0 0 0 0 1 0 0 0 0 0 0 0 0 1 0 0 0 0 0 0 0 0 1 0 0 0 0 0 0 0 0 1 0 0 0 0 0 0 0 0 1" order="8,8" result="BEVEL"/><feOffset dx="1" dy="1" in="BEVEL" result="OFFSET"/><feMerge><feMergeNode in="OFFSET"/><feMergeNode in="SourceGraphic"/></feMerge></filter><path id="a" d="M43 256a213 213 0 1 0 426 0"/><path id="b" d="M43 256a213 213 0 0 1 426 0"/><path id="r" d="M306 90q13.5 55.5 18 114v-1c-55-35-114-63-178-81 0 0 44-40 110-40 17 0 34 3 50 8"/><g id="c"><circle cx="256" cy="256" r="248" fill="#0621C6" stroke="#FC0" stroke-width="10"/><circle cx="256" cy="256" r="184" fill="#FC0"/><use xlink:href="#r"/><use xlink:href="#r" transform="rotate(60 256.406 256.109)"/><use xlink:href="#r" transform="rotate(120 256.235 255.937)"/><use xlink:href="#r" transform="rotate(180 256 256)"/><use xlink:href="#r" transform="rotate(-120 255.937 256.235)"/><use xlink:href="#r" transform="rotate(-60 256.109 256.406)"/><text textLength="670"><textPath xlink:href="#a" startOffset="50%" style="font:700 44px Arial,sans-serif">FIAT JUSTITIA RUAT CAELUM</textPath></text><text textLength="500"><textPath xlink:href="#b" startOffset="50%" style="font:58px&quot;Arial Black&quot;,sans-serif">IDENTIGRAF</textPath></text><g style="font:700 90px Arial,sans-serif"><text x="256" y="256" style="filter:url(#glow);fill:khaki" transform="rotate(-30 256 256)">NEURO</text><text x="256" y="250" style="filter:url(#shadow);fill:orange" transform="rotate(-30 256 256)">NEURO</text><text x="256" y="256" style="filter:url(#extrusion);fill:red" transform="rotate(-30 256 256)">NEURO</text></g></g></defs><g id="t"/><g id="u"/><use xlink:href="#c"/></svg>